<mxfile host="app.diagrams.net" modified="2022-11-03T09:08:08.651Z" agent="5.0 (Windows NT 10.0; Win64; x64) AppleWebKit/537.36 (KHTML, like Gecko) Chrome/107.0.0.0 Safari/537.36" etag="HMmrghesrASfrEGe48eq" version="20.5.1" type="github">
  <diagram id="YgJSP4L69GJZMg_yHPfN" name="第 1 页">
    <mxGraphModel dx="1422" dy="762" grid="1" gridSize="10" guides="1" tooltips="1" connect="1" arrows="1" fold="1" page="1" pageScale="1" pageWidth="827" pageHeight="1169" math="0" shadow="0">
      <root>
        <mxCell id="0" />
        <mxCell id="1" parent="0" />
        <mxCell id="29K_l-AV61iF5l5ld7Np-9" style="edgeStyle=orthogonalEdgeStyle;rounded=0;orthogonalLoop=1;jettySize=auto;html=1;entryX=0;entryY=0.5;entryDx=0;entryDy=0;curved=1;sketch=1;" edge="1" parent="1" source="29K_l-AV61iF5l5ld7Np-6" target="29K_l-AV61iF5l5ld7Np-7">
          <mxGeometry relative="1" as="geometry" />
        </mxCell>
        <mxCell id="29K_l-AV61iF5l5ld7Np-6" value="手绘风格测试" style="rounded=1;whiteSpace=wrap;html=1;sketch=1;" vertex="1" parent="1">
          <mxGeometry x="120" y="90" width="120" height="60" as="geometry" />
        </mxCell>
        <mxCell id="29K_l-AV61iF5l5ld7Np-7" value="哈哈" style="ellipse;whiteSpace=wrap;html=1;aspect=fixed;sketch=1;" vertex="1" parent="1">
          <mxGeometry x="340" y="200" width="80" height="80" as="geometry" />
        </mxCell>
        <mxCell id="29K_l-AV61iF5l5ld7Np-10" value="" style="shape=internalStorage;whiteSpace=wrap;html=1;backgroundOutline=1;sketch=1;hachureGap=4;jiggle=2;fontFamily=Architects Daughter;fontSource=https%3A%2F%2Ffonts.googleapis.com%2Fcss%3Ffamily%3DArchitects%2BDaughter;fontSize=20;" vertex="1" parent="1">
          <mxGeometry x="150" y="340" width="310" height="180" as="geometry" />
        </mxCell>
        <mxCell id="29K_l-AV61iF5l5ld7Np-11" value="" style="rounded=1;whiteSpace=wrap;html=1;strokeWidth=2;fillWeight=4;hachureGap=8;hachureAngle=45;fillColor=#1ba1e2;sketch=1;jiggle=2;fontFamily=Architects Daughter;fontSource=https%3A%2F%2Ffonts.googleapis.com%2Fcss%3Ffamily%3DArchitects%2BDaughter;fontSize=20;" vertex="1" parent="1">
          <mxGeometry x="520" y="130" width="120" height="60" as="geometry" />
        </mxCell>
      </root>
    </mxGraphModel>
  </diagram>
</mxfile>
